<svg width="29" height="26" viewBox="0 0 29 26" fill="none" xmlns="http://www.w3.org/2000/svg">
<path d="M17.0705 13L12.5227 8.92273C12.1273 8.56818 12.1273 8.03636 12.5227 7.68182C12.9182 7.32727 13.5114 7.32727 13.9068 7.68182L19.1795 12.4091C19.575 12.7636 19.575 13.2955 19.1795 13.65L13.9068 18.3773C13.5114 18.7318 12.9182 18.7318 12.5227 18.3773C12.1273 18.0227 12.1273 17.4909 12.5227 17.1364L17.0705 13ZM14.5 26C6.45909 26 0 20.2091 0 13C0 5.79091 6.45909 0 14.5 0C22.5409 0 29 5.79091 29 13C29 20.2091 22.5409 26 14.5 26ZM14.5 24.8182C21.75 24.8182 27.6818 19.5 27.6818 13C27.6818 6.5 21.75 1.18182 14.5 1.18182C7.25 1.18182 1.31818 6.5 1.31818 13C1.31818 19.5 7.25 24.8182 14.5 24.8182Z" fill="white"/>
</svg>
